<svg width="22" height="22" viewBox="0 0 22 22" fill="none" xmlns="http://www.w3.org/2000/svg">
<path d="M11 11.6875C8.09417 11.6875 5.72917 9.32251 5.72917 6.41668C5.72917 3.51084 8.09417 1.14584 11 1.14584C13.9058 1.14584 16.2708 3.51084 16.2708 6.41668C16.2708 9.32251 13.9058 11.6875 11 11.6875ZM11 2.52084C8.855 2.52084 7.10417 4.27168 7.10417 6.41668C7.10417 8.56168 8.855 10.3125 11 10.3125C13.145 10.3125 14.8958 8.56168 14.8958 6.41668C14.8958 4.27168 13.145 2.52084 11 2.52084Z" fill="#646464"/>
<path d="M18.8743 20.8542C18.4985 20.8542 18.1868 20.5425 18.1868 20.1667C18.1868 17.0042 14.9601 14.4375 11.0001 14.4375C7.04014 14.4375 3.81348 17.0042 3.81348 20.1667C3.81348 20.5425 3.50181 20.8542 3.12598 20.8542C2.75014 20.8542 2.43848 20.5425 2.43848 20.1667C2.43848 16.2525 6.27931 13.0625 11.0001 13.0625C15.721 13.0625 19.5618 16.2525 19.5618 20.1667C19.5618 20.5425 19.2501 20.8542 18.8743 20.8542Z" fill="#646464"/>
</svg>
