<svg width="27" height="29" viewBox="0 0 27 29" fill="none" xmlns="http://www.w3.org/2000/svg">
<path d="M1.875 6.74999H4.45833M4.45833 6.74999H25.125M4.45833 6.74999V24.8333C4.45833 25.5185 4.7305 26.1756 5.21497 26.66C5.69944 27.1445 6.35652 27.4167 7.04167 27.4167H19.9583C20.6435 27.4167 21.3006 27.1445 21.785 26.66C22.2695 26.1756 22.5417 25.5185 22.5417 24.8333V6.74999M8.33333 6.74999V4.16666C8.33333 3.48152 8.60551 2.82444 9.08997 2.33997C9.57444 1.8555 10.2315 1.58333 10.9167 1.58333H16.0833C16.7685 1.58333 17.4256 1.8555 17.91 2.33997C18.3945 2.82444 18.6667 3.48152 18.6667 4.16666V6.74999M10.9167 13.2083V20.9583M16.0833 13.2083V20.9583" stroke="#008CFF" stroke-width="2" stroke-linecap="round" stroke-linejoin="round"/>
</svg>
