<svg width="23" height="23" viewBox="0 0 23 23" fill="none" xmlns="http://www.w3.org/2000/svg">
<path d="M16.2917 21.8021H6.70833C2.48208 21.8021 1.19792 20.5179 1.19792 16.2917V6.70832C1.19792 2.48207 2.48208 1.19791 6.70833 1.19791H8.14583C9.82292 1.19791 10.35 1.74416 11.0208 2.63541L12.4583 4.55207C12.7746 4.97374 12.8225 5.03124 13.4167 5.03124H16.2917C20.5179 5.03124 21.8021 6.31541 21.8021 10.5417V16.2917C21.8021 20.5179 20.5179 21.8021 16.2917 21.8021ZM6.70833 2.63541C3.2775 2.63541 2.63542 3.28707 2.63542 6.70832V16.2917C2.63542 19.7129 3.2775 20.3646 6.70833 20.3646H16.2917C19.7225 20.3646 20.3646 19.7129 20.3646 16.2917V10.5417C20.3646 7.12041 19.7225 6.46874 16.2917 6.46874H13.4167C12.19 6.46874 11.7875 6.04707 11.3083 5.41457L9.87083 3.49791C9.3725 2.83666 9.21917 2.63541 8.14583 2.63541H6.70833Z" fill="#6E6E6E"/>
<path d="M19.1667 6.83291C18.7738 6.83291 18.4479 6.50707 18.4479 6.11416V4.79166C18.4479 3.27749 17.8058 2.63541 16.2917 2.63541H7.66667C7.27375 2.63541 6.94792 2.30957 6.94792 1.91666C6.94792 1.52374 7.27375 1.19791 7.66667 1.19791H16.2917C18.6108 1.19791 19.8854 2.47249 19.8854 4.79166V6.11416C19.8854 6.50707 19.5596 6.83291 19.1667 6.83291Z" fill="#6E6E6E"/>
</svg>
